<?xml version="1.0" encoding="utf-8"?>
<!-- Generator: Adobe Illustrator 26.5.2, SVG Export Plug-In . SVG Version: 6.00 Build 0)  -->
<svg version="1.1" id="Layer_3" xmlns="http://www.w3.org/2000/svg" xmlns:xlink="http://www.w3.org/1999/xlink" x="0px" y="0px"
	 viewBox="0 0 32 32" style="enable-background:new 0 0 32 32;" xml:space="preserve">
<path d="M31.3,24.4c-1-0.8-6.9-4.5-7.8-4.4c-0.5,0.1-0.8,0.5-1.7,1.6c-0.4,0.5-0.9,1.1-1.4,1.5c-0.9-0.2-1.9-0.6-2.7-1
	c-3.4-1.6-6.1-4.4-7.8-7.8c-0.4-0.9-0.8-1.8-1-2.7c0.5-0.5,1-1,1.5-1.4C11.5,9.3,11.9,9,12,8.5c0.2-1-3.5-6.8-4.4-7.8
	C7.2,0.3,6.9,0,6.5,0C5.3,0,0,6.6,0,7.5c0,0.1,0.1,6.9,8.8,15.8c8.8,8.7,15.7,8.8,15.8,8.8c0.9,0,7.5-5.3,7.5-6.5
	C32,25.1,31.7,24.8,31.3,24.4L31.3,24.4z"/>
<path d="M23,15h2c0-4.4-3.6-8-8-8v2C20.3,9,23,11.7,23,15z"/>
<path d="M29.7,14.9H32C32,6.7,25.3,0,17.1,0v2.3C24.1,2.3,29.7,7.9,29.7,14.9z"/>
</svg>
