<svg width="16" height="19" viewBox="0 0 16 19" fill="none" xmlns="http://www.w3.org/2000/svg">
<path d="M15.0698 4.23355C15.0244 3.94905 14.8063 3.71874 14.5155 3.66907L14.1067 3.59681C11.8442 3.18586 9.79072 2.01624 8.2915 0.277617C8.26878 0.250522 8.24607 0.227942 8.21881 0.205363C7.9326 -0.0384965 7.501 -0.00688504 7.25567 0.277617C5.75645 2.01173 3.70297 3.18586 1.44051 3.59681L1.03618 3.66907C0.749963 3.71874 0.527352 3.94905 0.481921 4.23355C0.468291 4.32839 0.141189 6.58634 0.822653 9.42685C1.22699 11.1023 1.89937 12.6331 2.82616 13.9744C3.98465 15.6588 5.53384 17.0452 7.4374 18.1019C7.53735 18.1606 7.65547 18.1877 7.76904 18.1877C7.88716 18.1877 8.00074 18.1561 8.10523 18.1019C10.0088 17.0452 11.5625 15.6543 12.7165 13.9744C13.6478 12.6331 14.3247 11.0977 14.7291 9.42685C15.4105 6.58634 15.0834 4.32839 15.0698 4.23355ZM11.0083 6.6315L8.32785 12.2493C8.23244 12.448 8.04617 12.588 7.8281 12.6286C7.79176 12.6331 7.75087 12.6377 7.71453 12.6377C7.5328 12.6377 7.36017 12.5654 7.23296 12.439L4.68428 9.89199C4.42078 9.62555 4.42078 9.19654 4.68883 8.93462C4.95687 8.67269 5.38846 8.67269 5.65196 8.93913L7.51917 10.8042L9.78618 6.05798C9.94973 5.71929 10.3541 5.57478 10.6948 5.73735C11.0264 5.89089 11.1718 6.29733 11.0083 6.6315Z" fill="white"/>
</svg>
