<svg width="50" height="50" viewBox="0 0 50 50" fill="none" xmlns="http://www.w3.org/2000/svg">
<path d="M48.0408 48.3329C48.0924 48.3353 48.1438 48.3238 48.1894 48.2994C48.235 48.2751 48.2732 48.2388 48.2999 48.1945C48.321 48.1606 48.3321 48.1215 48.3321 48.0816C48.3321 48.0417 48.321 48.0026 48.2999 47.9687L40.3908 33.8329L39.6574 34.5512C39.5234 34.6834 39.3646 34.7879 39.1902 34.8587C39.0157 34.9295 38.829 34.9652 38.6408 34.9637C38.4514 34.9653 38.2635 34.9293 38.0881 34.8578C37.9128 34.7863 37.7533 34.6807 37.6191 34.547L36.6666 33.6162L35.0833 35.1604L41.3916 46.6979C41.666 47.197 41.7365 47.7829 41.5883 48.3329H48.0408Z" fill="#B1B1B1"/>
<path d="M36.6667 27.4992C36.6149 27.4974 36.5636 27.5098 36.5182 27.5349C36.4729 27.56 36.4352 27.5969 36.4092 27.6417L33.6592 32.5584L34.2525 33.6417L35.65 32.2775C35.9282 32.0218 36.2927 31.8805 36.6707 31.8819C37.0486 31.8832 37.412 32.0272 37.6883 32.285L38.64 33.2159L39.5475 32.3325L36.9225 27.6425C36.8969 27.5976 36.8596 27.5606 36.8145 27.5353C36.7694 27.51 36.7183 27.4976 36.6667 27.4992Z" fill="#B1B1B1"/>
<path d="M39.9167 48.0488C39.9671 47.9667 39.9948 47.8727 39.997 47.7763C39.9992 47.68 39.9758 47.5848 39.9292 47.5005L30.3567 29.9888L29.4725 30.873C29.1701 31.1745 28.7605 31.3439 28.3334 31.3439C27.9063 31.3439 27.4966 31.1745 27.1942 30.873L24.9609 28.6396L23.6392 30.0396C23.3369 30.3414 22.9272 30.5109 22.5 30.5109C22.0729 30.5109 21.6632 30.3414 21.3609 30.0396L20.2325 28.9113L10.07 47.5005C10.0228 47.585 9.99882 47.6805 10.0006 47.7773C10.0023 47.874 10.0298 47.9686 10.08 48.0513C10.1316 48.1386 10.2053 48.2107 10.2937 48.2603C10.3821 48.3099 10.482 48.3353 10.5834 48.3338H39.4167C39.5178 48.3345 39.6172 48.3085 39.705 48.2585C39.7928 48.2084 39.8658 48.1361 39.9167 48.0488Z" fill="#B1B1B1"/>
<path d="M23.8608 27.4605C24.1631 27.1587 24.5728 26.9892 25 26.9892C25.4271 26.9892 25.8368 27.1587 26.1392 27.4605L28.3725 29.6938L29.5316 28.478L25.5167 21.1346C25.465 21.0431 25.3899 20.9669 25.2991 20.9139C25.2083 20.8609 25.1051 20.833 25 20.833C24.8949 20.833 24.7916 20.8609 24.7009 20.9139C24.6101 20.9669 24.535 21.0431 24.4833 21.1346L21.0667 27.3846L22.5408 28.8588L23.8608 27.4605Z" fill="#B1B1B1"/>
<path d="M9.60929 33.8329L1.69262 47.9704C1.67278 48.0041 1.66274 48.0428 1.66363 48.0819C1.66451 48.1211 1.67628 48.1592 1.69762 48.192C1.7242 48.2372 1.76265 48.2742 1.80878 48.299C1.85491 48.3238 1.90697 48.3356 1.95929 48.3329H8.41095C8.26253 47.7829 8.33334 47.1967 8.60845 46.6979L14.9168 35.1604L13.3335 33.6162L12.3751 34.5537C12.2414 34.6859 12.0829 34.7904 11.9087 34.8612C11.7346 34.9319 11.5481 34.9676 11.3601 34.9662C11.1705 34.9677 10.9824 34.9317 10.8068 34.8602C10.6312 34.7887 10.4714 34.6831 10.3368 34.5495L9.60929 33.8329Z" fill="#B1B1B1"/>
<path d="M40.795 3.58242C40.816 3.56066 40.8295 3.5327 40.8334 3.50268C40.8373 3.47266 40.8314 3.44218 40.8167 3.41576C40.8053 3.38927 40.7859 3.367 40.7613 3.35206C40.7366 3.33712 40.7079 3.33026 40.6792 3.33242H27.5V13.3324H40.6792C40.7085 13.3342 40.7376 13.3266 40.7624 13.3107C40.7871 13.2949 40.8061 13.2715 40.8167 13.2441C40.8314 13.2177 40.8373 13.1872 40.8334 13.1572C40.8295 13.1272 40.816 13.0992 40.795 13.0774L37.7383 9.51576C37.4546 9.18694 37.2986 8.76712 37.2986 8.33284C37.2986 7.89856 37.4546 7.47874 37.7383 7.14992L40.795 3.58242Z" fill="#B1B1B1"/>
<path d="M11.3592 33.2156L12.3175 32.2781C12.5957 32.022 12.9603 31.8804 13.3384 31.8816C13.7165 31.8829 14.0802 32.0269 14.3567 32.2848L15.75 33.6414L16.3433 32.5581L13.5933 27.6414C13.5662 27.5979 13.5283 27.5619 13.4834 27.537C13.4385 27.5121 13.388 27.499 13.3367 27.499C13.2853 27.499 13.2348 27.5121 13.1899 27.537C13.145 27.5619 13.1072 27.5979 13.08 27.6414L10.4517 32.3323L11.3592 33.2156Z" fill="#B1B1B1"/>
<path d="M24.1667 2.49935V19.3452C24.4287 19.2271 24.7127 19.166 25.0001 19.166C25.2874 19.166 25.5715 19.2271 25.8334 19.3452V2.49935C25.8344 2.39196 25.8137 2.28547 25.7726 2.18625C25.7315 2.08702 25.6709 1.9971 25.5942 1.92185C25.5179 1.84087 25.4259 1.77639 25.3237 1.73239C25.2215 1.68839 25.1113 1.6658 25.0001 1.66602C24.7791 1.66602 24.5671 1.75381 24.4108 1.91009C24.2545 2.06638 24.1667 2.27834 24.1667 2.49935Z" fill="#B1B1B1"/>
</svg>
