<svg width="50" height="50" viewBox="0 0 50 50" fill="none" xmlns="http://www.w3.org/2000/svg">
<g clip-path="url(#clip0_440_46839)">
<path d="M43.1592 8.95518L40.9204 6.71641V0L33.9553 7.21396L33.4578 12.9354L26.2438 20.1493C25.7463 20.1493 25.4976 20.1493 25.0001 20.1493C22.2638 20.1493 20.025 22.3881 20.025 25.1244C20.025 27.8607 22.2638 30.0995 25.0001 30.0995C27.7364 30.0995 29.9752 27.8607 29.9752 25.1244C29.9752 24.627 29.9752 24.3781 29.7265 23.8807L36.9404 16.6667L42.6618 16.1691L49.8758 8.95518H43.1592Z" fill="#B1B1B1"/>
<path d="M38.4328 18.9054H38.1841L34.7015 22.6368C34.9502 23.3831 34.9502 24.3781 34.9502 25.1244C34.9502 30.597 30.4726 35.0747 24.9999 35.0747C19.5272 35.0747 15.0496 30.597 15.0496 25.1244C15.0496 19.6517 19.5273 15.1741 25 15.1741C25.995 15.1741 26.7413 15.4228 27.4876 15.4228L31.2189 11.6915V11.4427C29.2289 10.6964 27.2389 10.199 25 10.199C16.791 10.199 10.0746 16.9154 10.0746 25.1244C10.0746 33.3333 16.791 40.0497 25 40.0497C33.209 40.0497 39.9254 33.3333 39.9254 25.1243C39.9254 22.8855 39.4278 20.8955 38.4328 18.9054Z" fill="#B1B1B1"/>
<path d="M47.6368 14.9254L43.9055 18.4081C44.403 20.3981 44.9005 22.637 44.9005 25.1245C44.9005 36.0698 35.9453 45.025 25 45.025C14.0547 45.025 5.09951 36.0697 5.09951 25.1245C5.09951 14.1792 14.0547 5.22397 25 5.22397C27.2388 5.22397 29.4776 5.72153 31.7164 6.46772V6.21899L35.4478 2.48765C32.214 0.995068 28.7313 0.248779 25 0.248779C11.3184 0.248779 0.124414 11.4428 0.124414 25.1245C0.124414 38.8061 11.3184 50 25 50C38.6816 50 49.8756 38.806 49.8756 25.1245C49.8756 21.3931 49.1294 17.9105 47.6368 14.9254Z" fill="#B1B1B1"/>
</g>
<defs>
<clipPath id="clip0_440_46839">
<rect width="50" height="50" fill="white"/>
</clipPath>
</defs>
</svg>
