<svg width="22" height="21" viewBox="0 0 22 21" fill="none" xmlns="http://www.w3.org/2000/svg">
<g clip-path="url(#clip0_2701_34789)">
<path d="M11.1312 9.36781L5.11816 5.91417V13.0103L11.1312 16.464V9.36781Z" fill="white"/>
<path d="M17.7602 4.84829L11.7461 1.39399L5.73193 4.84829L11.7461 8.30254L17.7602 4.84829Z" fill="white"/>
<path d="M12.3613 16.464L18.3744 13.0103V5.91417L12.3613 9.36781V16.464Z" fill="white"/>
<path d="M19.3557 16.6923L18.486 17.562L19.1547 18.2308H3.27786V2.35547L3.9466 3.02421L4.81637 2.15444L2.66283 0.000846863L0.509277 2.15444L1.37905 3.02421L2.0478 2.35547V19.4609H19.1547L18.486 20.1296L19.3557 20.9994L21.5093 18.8458L19.3557 16.6923Z" fill="white"/>
</g>
<defs>
<clipPath id="clip0_2701_34789">
<rect width="21" height="21" fill="white" transform="translate(0.509277)"/>
</clipPath>
</defs>
</svg>
