<svg width="25" height="24" viewBox="0 0 25 24" fill="none" xmlns="http://www.w3.org/2000/svg">
<path fill-rule="evenodd" clip-rule="evenodd" d="M6.40439 12.1786C6.2381 12.1786 6.10362 12.0463 6.10362 11.8828C6.10362 11.7193 6.2381 11.5869 6.40439 11.5869H9.10597C9.27226 11.5869 9.40674 11.7193 9.40674 11.8828C9.40674 12.0463 9.27226 12.1786 9.10597 12.1786H6.40439ZM16.5933 11.7046C16.5933 11.5411 16.7259 11.4087 16.8923 11.4087H17.9432V10.372C17.9432 10.2086 18.0776 10.0761 18.244 10.0761C18.4103 10.0761 18.5429 10.2086 18.5429 10.372V11.4087H19.5956C19.7601 11.4087 19.8946 11.5411 19.8946 11.7046C19.8946 11.868 19.7601 12.0004 19.5956 12.0004H18.5429V13.0371C18.5429 13.2006 18.4103 13.333 18.244 13.333C18.0777 13.333 17.9432 13.2006 17.9432 13.0371V12.0004H16.8923C16.7259 12.0004 16.5933 11.868 16.5933 11.7046ZM4 9.09533V16.9544H22V9.09533H4ZM13.2502 12.5327C13.2502 12.5335 13.2501 12.5342 13.25 12.5349L13.25 12.5357C13.2504 12.5359 13.2508 12.5359 13.2512 12.5359H15.1446L12.4701 15.798L12.748 13.4554L10.8547 13.455L13.3863 10.2576L13.2502 12.5327ZM22 17.5462H4V18.557C4 18.8015 4.2017 19 4.44938 19H21.5506C21.7983 19 22 18.8015 22 18.557L22 17.5462ZM4 8.50357H22V7.49983C22 7.25535 21.7983 7.05671 21.5506 7.05671H4.44938C4.2017 7.05671 4 7.25532 4 7.49983V8.50357ZM6.11951 6.46499H8.27974V5.88803H6.11951V6.46499ZM6.55476 5.29631H7.8445V4H6.55476V5.29631ZM17.7203 5.88803V6.46499H19.8805V5.88803H17.7203ZM18.1555 5.29631H19.4452V4H18.1555V5.29631Z" fill="white"/>
</svg>
