<svg width="32" height="31" viewBox="0 0 32 31" fill="none" xmlns="http://www.w3.org/2000/svg">
<path d="M25.9389 9.14258C25.8784 8.76113 25.5878 8.45234 25.2003 8.38574L24.6553 8.28887C21.6401 7.73789 18.9034 6.16973 16.9053 3.83867C16.8751 3.80234 16.8448 3.77207 16.8085 3.7418C16.427 3.41484 15.8518 3.45723 15.5249 3.83867C13.5268 6.16367 10.7901 7.73789 7.77486 8.28887L7.236 8.38574C6.85455 8.45234 6.55787 8.76113 6.49732 9.14258C6.47916 9.26973 6.04322 12.2971 6.95143 16.1055C7.49029 18.3518 8.38639 20.4043 9.62154 22.2025C11.1655 24.4609 13.2301 26.3197 15.7671 27.7365C15.9003 27.8152 16.0577 27.8516 16.209 27.8516C16.3665 27.8516 16.5178 27.8092 16.6571 27.7365C19.194 26.3197 21.2647 24.4549 22.8026 22.2025C24.0438 20.4043 24.946 18.3457 25.4848 16.1055C26.393 12.2971 25.9571 9.26973 25.9389 9.14258ZM20.526 12.3576L16.9538 19.8896C16.8266 20.1561 16.5784 20.3438 16.2878 20.3982C16.2393 20.4043 16.1848 20.4104 16.1364 20.4104C15.8942 20.4104 15.6641 20.3135 15.4946 20.1439L12.0979 16.7291C11.7467 16.3719 11.7467 15.7967 12.104 15.4455C12.4612 15.0943 13.0364 15.0943 13.3876 15.4516L15.876 17.9521L18.8973 11.5887C19.1153 11.1346 19.6542 10.9408 20.1083 11.1588C20.5503 11.3646 20.744 11.9096 20.526 12.3576Z" fill="white"/>
</svg>
