<svg width="34" height="35" viewBox="0 0 34 35" fill="none" xmlns="http://www.w3.org/2000/svg">
<mask id="mask0_1162_28424" style="mask-type:alpha" maskUnits="userSpaceOnUse" x="0" y="0" width="34" height="35">
<rect y="0.155762" width="34" height="34" fill="#D9D9D9"/>
</mask>
<g mask="url(#mask0_1162_28424)">
<path d="M20.5771 19.2805L26.2438 13.6138L24.2604 11.5951L21.9938 13.8263V7.94716H19.1604V13.8263L16.8938 11.5951L14.9104 13.6138L20.5771 19.2805ZM12.7854 24.2388C12.0063 24.2388 11.3395 23.9616 10.7851 23.4072C10.2298 22.8519 9.9521 22.1847 9.9521 21.4055V5.82216C9.9521 5.043 10.2298 4.37575 10.7851 3.82041C11.3395 3.26602 12.0063 2.98883 12.7854 2.98883H28.3688C29.1479 2.98883 29.8152 3.26602 30.3705 3.82041C30.9249 4.37575 31.2021 5.043 31.2021 5.82216V21.4055C31.2021 22.1847 30.9249 22.8519 30.3705 23.4072C29.8152 23.9616 29.1479 24.2388 28.3688 24.2388H12.7854ZM8.11044 31.1451C7.33127 31.2631 6.63474 31.0742 6.02085 30.5784C5.40696 30.0826 5.0528 29.4451 4.95835 28.6659L3.04585 13.1888C2.95141 12.4097 3.14596 11.7131 3.62952 11.0992C4.11402 10.4854 4.74585 10.1312 5.52502 10.0367L7.11877 9.85966V22.8222C7.11877 24.0027 7.53196 25.0062 8.35835 25.8326C9.18474 26.659 10.1882 27.0722 11.3688 27.0722H26.1729C26.1729 27.6861 25.9194 28.1701 25.4122 28.5242C24.9041 28.8784 24.3313 29.1027 23.6938 29.1972L8.11044 31.1451Z" fill="#B1B1B1"/>
</g>
</svg>
